<svg width="477" height="511.876" xmlns="http://www.w3.org/2000/svg" clip-rule="evenodd" fill-rule="evenodd" image-rendering="optimizeQuality" text-rendering="geometricPrecision" shape-rendering="geometricPrecision">

 <g>
  <title>Layer 1</title>
  <path fill="white" id="svg_1" d="m416.63,111.415c0,17.381 -0.412,35.18 -1.049,53.159c37.02,-41.554 47.382,-77.508 42.063,-103.582c-3.775,-18.508 -15.718,-31.951 -31.432,-38.442c-16.122,-6.661 -36.291,-6.136 -55.993,3.501c-22.867,11.185 -44.944,34.454 -59.775,72.714l90.141,-3.394c8.553,-0.308 15.737,6.376 16.045,14.929c0.013,0.375 0.013,0.747 0,1.115zm-306.712,231.718l-16.224,-16.224l77.747,-77.746l44.571,44.572l-13.501,13.501l-28.348,-28.348l-20.036,20.036l26.388,26.388l-13.503,13.503l-26.387,-26.388l-30.707,30.706zm76.215,52.476c2.849,2.85 6.86,5.628 12.087,8.35l-12.105,12.104c-5.862,-2.233 -11.724,-6.278 -17.604,-12.158c-6.498,-6.498 -9.584,-12.856 -9.256,-19.093c0.326,-6.237 3.758,-12.649 10.309,-19.201l28.673,-28.673l-7.749,-7.749l12.305,-12.306l8.866,8.866l12.54,-12.54l15.108,15.107l-12.65,12.65l16.642,16.642l-12.196,12.196l-16.642,-16.642l-28.637,28.637c-2.298,2.299 -3.348,4.67 -3.157,7.042c0.191,2.388 1.342,4.645 3.466,6.768zm228.335,-203.692c-1.493,33.126 -3.423,66.452 -4.642,98.514a15.44,15.44 0 0 1 -4.529,10.4l0.025,0.025l-196.437,196.437c-9.721,9.721 -22.523,14.582 -35.314,14.582c-12.788,0.001 -25.59,-4.86 -35.312,-14.582l-123.676,-123.675c-9.721,-9.722 -14.583,-22.525 -14.583,-35.313c0.001,-12.79 4.863,-25.592 14.584,-35.313l196.369,-196.369a15.493,15.493 0 0 1 11.419,-4.542l68.609,-2.583c16.602,-47.392 43.39,-76.069 71.28,-89.711c24.579,-12.024 50.13,-12.516 70.857,-3.953c21.135,8.731 37.186,26.758 42.244,51.554c7.008,34.354 -7.594,81.833 -60.894,134.529zm-138.018,-25.562c2.052,-18.817 5.331,-35.843 9.607,-51.164l-64.121,2.415l-196.369,196.369c-13.382,13.382 -13.382,35.279 -0.001,48.66l123.676,123.675c13.382,13.382 35.281,13.379 48.66,0l196.437,-196.437l6.803,-179.015l-96.109,3.619c-4.043,13.295 -7.282,28.118 -9.517,44.557a50.241,50.241 0 0 1 8.017,-0.644c12.785,-0.001 25.57,4.875 35.324,14.629c9.753,9.753 14.63,22.539 14.63,35.324c0,12.784 -4.877,25.571 -14.63,35.325c-9.753,9.753 -22.54,14.63 -35.325,14.629c-12.784,0.001 -25.571,-4.876 -35.324,-14.629c-9.754,-9.754 -14.63,-22.54 -14.629,-35.324c-0.001,-12.785 4.877,-25.571 14.63,-35.325a50.16,50.16 0 0 1 8.241,-6.664zm2.742,17.647c13.443,-13.443 35.239,-13.443 48.682,-0.001c13.444,13.444 13.444,35.24 0,48.684c-13.444,13.443 -35.24,13.443 -48.683,0c-13.443,-13.443 -13.443,-35.239 0.001,-48.683z"/>
 </g>
</svg>